<?xml version="1.0" encoding="UTF-8"?>
<svg width="205.85" height="105.21" enable-background="new 0 0 841.89 595.28" version="1.1" viewBox="0 0 205.85 105.21" xml:space="preserve" xmlns="http://www.w3.org/2000/svg">
<path d="m48.886 27.85c0.215 0.216 0.599 0.165 0.808 0 0-0.553-0.404-2.018-0.404-2.018 0-3.141 14.205-14.457 6.412-21.945-6.396-6.396-16.201-3.484-21.953-1.215-9.184 3.531-20.99 11-27.425 22.832-9.231 17.214-7.131 34.49-1.488 43.168 6.358 9.183 19.825 11.472 29.183 4.498 5.354-4.226 9.107-7.961 10.062-10.062 0.18-0.438-0.077-0.576-0.266-0.454-4.441 3.231-9.605 8.363-16.077 10.187-5.494 1.548-12.187 2.422-17.774-3.091-5.109-5.386-7.063-13.484-5.809-25.563 1.438-11.845 7.295-22.521 16.878-29.935 8.882-6.872 18.973-10.018 23.312-10.369 4.34-0.353 8.817 0.787 10.219 2.309 4.805 5.217-3.154 11.693-5.639 15.742-2.486 4.05-0.039 5.916-0.039 5.916z" fill="#c46258"/><g fill="#923828">
<path d="m56.442 44.944c-0.422 0.288-12.091 8.943-13.408 9.222 0.012-0.846 6.773-11.614 6.988-12.388s0.447-1.216 0.176-1.59c-0.535-0.29-1.539 0.227-2.473 2.296-1.375-1.854-2.207-2.069-3.834-2.069-7.002 0-12.087 14.362-9.123 15.712 2.482 1.192 7.022-5.771 7.307-5.771-0.322 2.176-0.965 5.185 0.337 5.818 3.286 1.098 13.999-10.795 14.296-11.117 0.22-0.189-0.034-0.271-0.266-0.113zm-20.498 8.843c-0.53-3.507 3.784-11.025 7.758-11.858 1.466-0.433 3.053 0.222 3.469 1.414-0.72 0.737-9.714 9.328-11.227 10.444z"/>
<path d="m68.977 25.681c-1.16-0.277-5.432 7.17-9.755 14.289s-9.331 13.791-7.575 15.618c3.598 3.647 15.354-12.272 16.817-11.919 0.378-0.277 0.204-0.27-0.253-0.378-1.455 0.652-13.561 11.012-14.424 10.338 1.104-6.25 18.713-26.775 15.19-27.948z"/>
<path d="m85.34 17.29c-1.112-0.756-7.299 9.783-13.541 19.689-5.519 8.761-11.049 16.828-9.592 18.864 2.422 2.763 12.816-7.153 13.662-7.834 0.239-0.58-0.342-0.593-0.53-0.429-0.997 0.555-8.243 6.961-10.515 6.175 0.133-4.788 23.723-34.129 20.516-36.465z"/>
<path d="m80.678 40.415c-0.543-0.825-2.947 2.99-5.25 6.943-2.009 3.446-4.314 6.959-3.836 8.296 1.666 2.675 8.932-4.895 9.336-5.349 0.403-0.454 0.457-1.413-0.451-1.01-0.518 0.568-3.232 3.028-6.336 4.416 1.047-4.566 7.67-11.177 6.537-13.296z"/>
<path d="m86.244 31.434c-0.473-0.403-1.18 0.329-1.482 0.757s-0.453 1.363 0 1.615c0.455 0.251 1.139-0.362 1.372-0.717 0.233-0.353 0.584-1.25 0.11-1.655z"/>
<path d="m79.66 50.071c0.863-0.586 9.689-10.347 10.381-9.656 0.69 0.691-2.109 5.74-2.277 6.534 1.123-0.756 6.194-7.107 7.197-6.534 1.23 0.726-2.705 6.781-2.68 7.849 1.979-2.316 7.694-8.535 8.887-7.849 1.551 1.048-5.678 9.26-5.91 14.33 1.539 0.398 4.787-1.722 4.895-1.892s0.365-0.076 0.227 0.227c-0.139 0.304-5.65 4.856-6.812 2.599-1.444-2.579 4.131-10.312 4.175-10.924-1.027-0.221-8.723 11.978-10.502 11.505-1.74-0.454 5.197-10.905 4.826-11.656-2.77 1.262-8.414 12.593-10.369 11.621-0.984-0.816 5.203-10.573 5.865-11.696-0.359-0.088-6.906 6.055-7.267 6.432-0.321 0.114-0.927-0.152-0.636-0.89z"/>
<path d="m109.76 40.573c-3.33-1.514-8.045 6.251-8.045 6.251s-5.399 9.173-1.01 9.481c3.696 0.144 7.519-6.252 7.519-6.252s4.866-7.966 1.536-9.48zm-8.67 14.229c-0.605-2.081 4.769-11.864 7.285-12.054 0.605 0.171 0.561 0.429 0.662 0.72 0.152 0.947-4.447 10.029-7.947 11.334z"/>
<path d="m109.66 42.383c2.611 0.104 4.613-0.89 5.98-1.85 0.094-0.066 0.118-0.172 0.352-0.119 0.545 0.319-0.777 2.641-0.504 2.649 1.916-0.303 2.496-0.147 4.647-0.075 4.976-0.405 9.001-4.239 9.001-4.239s0.386-0.072 0.252 0.151c-0.965 1.177-2.604 2.639-4.659 3.734-2.319 1.152-4.792 1.496-7.728 1.993-3.028 0.379-6.914 12.413-9.316 11.631-2.02-0.731 6.742-12.362 5.708-12.866-1.312-0.404-3.317-0.215-3.532-0.151-0.277-0.139-0.38-0.533-0.201-0.858z"/>
</g><g transform="translate(-319.03 -246.06)" fill="#c46258">
	<path d="m455.71 282.41c-0.719-0.196-1.344-0.075-1.344-0.075-2.902 0.177-8.693 6.056-14.145 14.48-6.607 10.211-13.07 23.061-21.021 33.96-14.808 18.544-37.009 19.44-42.206 19.88-17.105 0.833-24.649-7.593-23.666-13.144 1.021-3.709 4.895-10.223 23.287-10.093 14.658 0.178 34.578 6.384 37.654 6.989 0.316 0.075 0.623-7e-3 0.342-0.416-10.635-2.385-23.275-7.097-40.872-7.001-16.312 0.34-20.474 7.492-20.966 10.672-0.454 9.045 11.404 13.75 22.555 13.598 31.094-0.368 45.867-18.745 48.883-22.996 5.547-7.138 11.593-22.088 15.453-29.506 7.002-11.854 13.652-16.718 15.988-15.951 0.479 0.118 0.449-0.217 0.058-0.397z"/>
	<path d="m416.99 334.99c-0.605-0.075-0.831-0.05-0.404 0.403 0.428 0.455 21.562 8.092 43.295 8.856 25.885 0.454 42.027-9.427 43.748-10.899-2.387 1.081-13.7 8.527-35.65 10.143-20.295 1.899-49.614-7.607-50.989-8.503z"/>
</g>
<path d="m126.6 43.714c0.255-0.197 3.955-3.018 6.32-2.422 0.965 0.284 3.368 2.819-0.265 8.894-3.444 5.261-8.07 6.623-10.246 5.138-1.24-0.956-0.981-4.17-0.899-4.627 0.075-0.303 0.284-0.354 0.353-0.179 0.13 0.17-0.901 4.398 1.644 4.891 4.646 0.341 11.13-11.397 9.679-13.359-1.211-1.579-6.968 2.146-6.968 2.146s0.128-0.284 0.382-0.482z" fill="#923828"/>
<g transform="translate(-319.03 -246.06)" fill="#923828">
	<path d="m454.35 287.03c-0.089 0.075-0.102 0.265 0 0.353 0.101 0.089 0.617 0 1.198-0.062 7.039-1.413 13.145-8.286 18.491-15.402 5.136-7.586 6.917-13.291 5.136-13.915-2.03-0.479-6.269 5.879-8.919 9.866-3.342 5.764-21.127 34.152-20.756 34.332 0.373 0.18 2.391 0.107 2.842-0.045 0.163-0.295 12.932-23.668 14.925-27.742 1.993-4.073 9.722-17.214 11.985-15.931 1.463 1.552-3.266 10.751-8.641 17.142-4.728 5.799-10.226 10.799-16.261 11.404z"/>
	<path d="m457.81 291.45c0.183-0.378 6.305-5.272 8.025-4.983 1.723 0.291 1.518 1.678 1.511 1.994-0.228 2.818-6.464 6.539-6.351 12.272 0.069 0.485 0.163 1.275 2.786-0.314 1.64-0.987 3.346-2.89 3.47-3.292 0.24-0.215 0.354 0.012 0.095 0.321-2.403 3.262-6.326 5.419-7.437 4.75-2.132-1.477-0.82-4.983 0.782-7.115 1.577-2.435 7.984-6.716 5.665-8.047-1.664-0.956-6.756 3.179-9.168 5.233-0.226 7e-3 0.124-0.554 0.622-0.819z"/>
</g>
<path d="m157.99 40.706c-2.876-1.325-7.36 4.314-7.947 5.07-0.586 0.758-5.146 8.072-1.74 10.11s8.338-5.556 9.045-6.779c0.705-1.224 3.517-7.073 0.642-8.401zm-1.704 5.714c-0.555 1.3-0.209 2.616 0.244 3.196-0.025 0.581-5.605 7.665-7.876 6.038-1.009-0.984 2.157-7.342 3.028-8.616 0.87-1.273 4.188-6.85 6.219-5.916 1.148 0.5 1.003 3.047 0.775 3.197-0.226 0.152-1.834 0.802-2.39 2.101z" fill="#923828"/>
<path d="m156.98 48.766c1.235-0.169 2.233-0.354 3.443-1.085 1.413-0.795 6.1-5.008 8.825-7.267 1.905-1.449 2.945-1.892 4.484-2.018 2.32 0.126 2.838 0.972 2.686 1.362-0.441 1.047-2.762-0.782-3.273-0.795-0.75-0.075-1.82 0.541-2.34 0.908-3.306 1.854-3.418 8.589-5.002 11.77-1.293 2.927-5.305 4.902-7.492 4.604-2.201-0.392-1.873-2.599-1.609-3.166 1.191-2.467 4.832-4.567 4.959-4.637 0.125-0.068 0.202-0.028 0.132 0.096-0.038 0.065-2.306 1.451-3.747 3.09-1.469 1.584-1.633 3.457-0.042 4.161 1.757 0.763 4.943-2.382 6.354-6.719 1.098-2.949 2.79-6.189 3.943-7.231-0.584 0.288-6.619 5.519-7.422 5.898-1.02 0.667-2.522 1.189-3.917 1.201-0.167-0.046-0.129-0.14 0.018-0.172z" fill="#923828"/>
<path d="m171.71 47.631c3.5-0.113 9.404-6.339 6.906-7.114-4.672-0.576-13.466 9.574-9.757 14.456 3.481 4.163 17.003 2.748 21.11 1.477 9.838-3.047 15.346-10.483 15.876-17.257 0.303-11.392-7.777-16.737-18.411-16.586-10.981 0.377-17.689 6.811-21.723 7.036-1.098 0.177-5.071 0.214-8.591-0.959-0.417-0.038-0.474 0.082-0.132 0.271 0.378 0.284 8.154 2.45 15.471 0.18 5.45-1.767 10.955-5.895 19.541-5.487 9.02 0.189 16.016 9.35 12.652 19.474-1.549 4.664-6.848 9.978-12.906 12.356-7.053 2.769-18.297 2.315-20.529 6e-3 -4.427-4.776 4.863-15.629 7.229-14.513 1.69 0.821-4.049 6.131-6.68 6.339-0.55 0.08-0.642 0.302-0.056 0.321z" fill="#c46258"/>
</svg>
