<?xml version="1.0" encoding="UTF-8"?>
<svg width="205.85" height="105.21" enable-background="new 0 0 841.89 595.28" version="1.1" viewBox="0 0 205.85 105.21" xml:space="preserve" xmlns="http://www.w3.org/2000/svg">
    <defs>
        <clipPath id="clip-c-1">
            <path d="m48.886 27.85c0.215 0.216 0.599 0.165 0.808 0 0-0.553-0.404-2.018-0.404-2.018 0-3.141 14.205-14.457 6.412-21.945-6.396-6.396-16.201-3.484-21.953-1.215-9.184 3.531-20.99 11-27.425 22.832-9.231 17.214-7.131 34.49-1.488 43.168 6.358 9.183 19.825 11.472 29.183 4.498 5.354-4.226 9.107-7.961 10.062-10.062 0.18-0.438-0.077-0.576-0.266-0.454-4.441 3.231-9.605 8.363-16.077 10.187-5.494 1.548-12.187 2.422-17.774-3.091-5.109-5.386-7.063-13.484-5.809-25.563 1.438-11.845 7.295-22.521 16.878-29.935 8.882-6.872 18.973-10.018 23.312-10.369 4.34-0.353 8.817 0.787 10.219 2.309 4.805 5.217-3.154 11.693-5.639 15.742-2.486 4.05-0.039 5.916-0.039 5.916z"/>
        </clipPath>
        <clipPath id="clip-a-1-a">
            <path d="m50.022 41.778s0.447-1.216 0.176-1.59c-0.535-0.29-1.539 0.227-2.473 2.296-1.375-1.854-2.207-2.069-3.834-2.069-7.002 0-12.087 14.362-9.123 15.712 2.482 1.192 7.4766-5.8013 7.7616-5.8013 0.2311-0.26591 6.9406-6.8395 7.4924-8.5477zm-14.078 12.009c-0.53-3.507 3.784-11.025 7.758-11.858 1.466-0.433 3.053 0.222 3.469 1.414-0.72 0.737-9.714 9.328-11.227 10.444z"/>
        </clipPath>
        <clipPath id="clip-a-1-b">
        	<path d="m56.442 44.944c-0.422 0.288-12.091 8.943-13.408 9.222 0.012-0.846 6.773-11.614 6.988-12.388s0.447-1.216 0.176-1.59c-0.535-0.29-1.539 0.227-2.473 2.296l-5.65 7.872c-0.322 2.176-0.965 5.185 0.337 5.818 3.286 1.098 13.999-10.795 14.296-11.117 0.22-0.189-0.034-0.271-0.266-0.113z"/>
        </clipPath>
        <clipPath id="clip-l-1">
        	<path d="m68.977 25.681c-1.16-0.277-5.432 7.17-9.755 14.289s-9.331 13.791-7.575 15.618c3.598 3.647 15.354-12.272 16.817-11.919 0.378-0.277 0.204-0.27-0.253-0.378-1.455 0.652-13.561 11.012-14.424 10.338 1.104-6.25 18.713-26.775 15.19-27.948z"/>
        </clipPath>
        <clipPath id="clip-l-2">
            <path d="m85.34 17.29c-1.112-0.756-7.299 9.783-13.541 19.689-5.519 8.761-11.049 16.828-9.592 18.864 2.422 2.763 12.816-7.153 13.662-7.834 0.239-0.58-0.342-0.593-0.53-0.429-0.997 0.555-8.243 6.961-10.515 6.175 0.133-4.788 23.723-34.129 20.516-36.465z"/>
        </clipPath>
        <clipPath id="clip-i-1-a">
            <path d="m80.391 40.314c-0.8554 0.23157-2.9478 3.5841-4.9629 7.043-2.009 3.446-4.3139 6.9599-3.8359 8.2969 1.471 2.3619 7.0592-3.0296 8.6836-4.6914 0.0064-0.0019 0.01525 2.59e-4 0.02148-2e-3 0.361-0.377 7.2656-6.4316 7.2656-6.4316 1.8639-1.8923 3.7645-3.803 2.4785-4.1152-0.5937-0.59284-7.1462 6.4757-9.5488 8.875-6e-3 0.0026-0.0095 0.0032-0.01563 0.0059-0.12849 0.1409-0.39445 0.40002-0.76562 0.72852-0.0029 0.0026-0.0029 0.0033-0.0059 0.0059-3.8e-4 2.82e-4 -0.0016 0.0017-2e-3 2e-3 -1.1278 0.99671-3.2357 2.6392-5.5625 3.6797 1.047-4.566 7.6701-11.178 6.5371-13.297-0.06788-0.10312-0.16491-0.13269-0.28711-0.09961z"/>
        </clipPath>
        <clipPath id="clip-i-1-b">
            <path d="m86.244 31.434c-0.473-0.403-1.18 0.329-1.482 0.757s-0.453 1.363 0 1.615c0.455 0.251 1.139-0.362 1.372-0.717 0.233-0.353 0.584-1.25 0.11-1.655z"/>
        </clipPath>
        <clipPath id="clip-m-1">
            <path d="m87.562 44.529c-0.662 1.123-6.8492 10.879-5.8652 11.695 1.955 0.972 7.5991-10.359 10.369-11.621 0.371 0.751-6.5662 11.202-4.8262 11.656 1.779 0.473 9.475-11.725 10.502-11.504-0.044 0.612-5.6178 8.3448-4.1738 10.924 1.162 2.257 6.6735-2.2956 6.8125-2.5996 0.138-0.303-0.12052-0.39656-0.22852-0.22656s-3.3555 2.2886-4.8945 1.8906c0.232-5.07 7.4612-13.282 5.9102-14.33-1.193-0.686-6.9077 5.5336-8.8867 7.8496-0.025-1.068 3.9097-7.1236 2.6797-7.8496-1.003-0.573-6.0743 5.7792-7.1973 6.5352 0.168-0.794 2.9673-5.8442 2.2773-6.5352z"/>
        </clipPath>
        <clipPath id="clip-o-1">
            <path d="m109.76 40.573c-3.33-1.514-8.045 6.251-8.045 6.251s-5.399 9.173-1.01 9.481c3.696 0.144 7.519-6.252 7.519-6.252s4.866-7.966 1.536-9.48zm-8.67 14.229c-0.605-2.081 4.769-11.864 7.285-12.054 0.605 0.171 0.561 0.429 0.662 0.72 0.152 0.947-4.447 10.029-7.947 11.334z"/>
        </clipPath>
        <clipPath id="clip-r-1">
            <path d="m109.66 42.383c2.611 0.104 4.613-0.89 5.98-1.85 0.094-0.066 0.118-0.172 0.352-0.119 0.545 0.319-0.777 2.641-0.504 2.649 1.916-0.303 2.496-0.147 4.647-0.075 4.976-0.405 9.001-4.239 9.001-4.239s0.386-0.072 0.252 0.151c-0.965 1.177-2.604 2.639-4.659 3.734-2.319 1.152-4.792 1.496-7.728 1.993-3.028 0.379-6.914 12.413-9.316 11.631-2.02-0.731 6.742-12.362 5.708-12.866-1.312-0.404-3.317-0.215-3.532-0.151-0.277-0.139-0.38-0.533-0.201-0.858z"/>
        </clipPath>
        <clipPath id="clip-p-1-a">
            <path d="m126.6 43.714c0.255-0.197 3.955-3.018 6.32-2.422 0.965 0.284 3.368 2.819-0.265 8.894-3.444 5.261-8.07 6.623-10.246 5.138-1.24-0.956-0.981-4.17-0.899-4.627 0.075-0.303 0.284-0.354 0.353-0.179 0.13 0.17-0.901 4.398 1.644 4.891 4.646 0.341 11.13-11.397 9.679-13.359-1.211-1.579-6.968 2.146-6.968 2.146s0.128-0.284 0.382-0.482z"/>
        </clipPath>
        <clipPath id="clip-h-1-a">
            <path d="m135.32 40.97c-0.089 0.075-0.102 0.265 0 0.353 0.101 0.089 0.617 0 1.198-0.062 7.039-1.413 13.145-8.286 18.491-15.402 0.70353-1.0391 1.3441-2.043 1.9212-3.0033 3.6359-6.0503 4.7518-10.373 3.2148-10.912l0.077 0.48c1.463 1.552-3.266 10.751-8.641 17.142-4.728 5.799-10.226 10.799-16.261 11.404z"/>
        </clipPath>
        <clipPath id="clip-h-1-b">
            <path d="m160.15 11.944c-2.03-0.479-6.269 5.879-8.919 9.866-3.342 5.764-21.127 34.152-20.756 34.332 0.373 0.18 2.391 0.107 2.842-0.045 0.163-0.295 12.932-23.668 14.925-27.742 1.993-4.073 9.722-17.214 11.985-15.931 0 0 0.37866-0.13373-0.077-0.48z"/>
        </clipPath>
        <clipPath id="clip-h-1-c">
            <path d="m138.79 45.398c0.183-0.378 6.305-5.272 8.025-4.983 1.723 0.291 1.518 1.678 1.511 1.994-0.228 2.818-6.464 6.539-6.351 12.272 0.069 0.485 0.163 1.275 2.786-0.314 1.64-0.987 3.346-2.89 3.47-3.292 0.24-0.215 0.354 0.012 0.095 0.321-2.403 3.262-6.326 5.419-7.437 4.75-2.132-1.477-0.82-4.983 0.782-7.115 1.577-2.435 7.984-6.716 5.665-8.047-1.664-0.956-6.756 3.179-9.168 5.233-0.226 7e-3 0.124-0.554 0.622-0.819z"/>
        </clipPath>
        <clipPath id="clip-o-2">
            <path d="m157.99 40.706c-2.876-1.325-7.36 4.314-7.947 5.07-0.586 0.758-5.146 8.072-1.74 10.11s8.338-5.556 9.045-6.779c0.705-1.224 3.517-7.073 0.642-8.401zm-1.704 5.714c-0.555 1.3-0.209 2.616 0.244 3.196-0.025 0.581-5.605 7.665-7.876 6.038-1.009-0.984 2.157-7.342 3.028-8.616 0.87-1.273 4.188-6.85 6.219-5.916 1.148 0.5 1.003 3.047 0.775 3.197-0.226 0.152-1.834 0.802-2.39 2.101z"/>
        </clipPath>
        <clipPath id="clip-s-1-a">
            <path d="m156.98 48.766c1.235-0.169 2.233-0.354 3.443-1.085 1.413-0.795 6.1-5.008 8.825-7.267 1.905-1.449 2.945-1.892 4.484-2.018 2.32 0.126 2.838 0.972 2.686 1.362-0.441 1.047-2.762-0.782-3.273-0.795-0.75-0.075-1.82 0.541-2.34 0.908l-2.504 1.968c-0.584 0.288-6.619 5.519-7.422 5.898-1.02 0.667-2.522 1.189-3.917 1.201-0.167-0.046-0.129-0.14 0.018-0.172z"/>
        </clipPath>
        <clipPath id="clip-s-1-b">
            <path d="m169.25 40.414c1.905-1.449 2.945-1.892 4.484-2.018 2.32 0.126 2.838 0.972 2.686 1.362-0.441 1.047-2.762-0.782-3.273-0.795-0.75-0.075-1.82 0.541-2.34 0.908-3.306 1.854-3.418 8.589-5.002 11.77-1.293 2.927-5.305 4.902-7.492 4.604-2.201-0.392-1.873-2.599-1.609-3.166 1.191-2.467 4.832-4.567 4.959-4.637 0.125-0.068 0.202-0.028 0.132 0.096-0.038 0.065-2.306 1.451-3.747 3.09-1.469 1.584-1.633 3.457-0.042 4.161 1.757 0.763 4.943-2.382 6.354-6.719 1.098-2.949 2.79-6.189 3.943-7.231z"/>
        </clipPath>
        <clipPath id="clip-e-1">
            <path d="m171.71 47.631c3.5-0.113 9.404-6.339 6.906-7.114-4.672-0.576-13.466 9.574-9.757 14.456 3.481 4.163 17.003 2.748 21.11 1.477 9.838-3.047 15.346-10.483 15.876-17.257 0.303-11.392-7.777-16.737-18.411-16.586-10.981 0.377-17.689 6.811-21.723 7.036-1.098 0.177-5.071 0.214-8.591-0.959-0.417-0.038-0.474 0.082-0.132 0.271 0.378 0.284 8.154 2.45 15.471 0.18 5.45-1.767 10.955-5.895 19.541-5.487 9.02 0.189 16.016 9.35 12.652 19.474-1.549 4.664-6.848 9.978-12.906 12.356-7.053 2.769-18.297 2.315-20.529 6e-3 -4.427-4.776 4.863-15.629 7.229-14.513 1.69 0.821-4.049 6.131-6.68 6.339-0.55 0.08-0.642 0.302-0.056 0.321z" fill="#c46258"/>
        </clipPath>
        <clipPath id="clip-p-1-b">
            <path d="m136.68 36.353c-0.719-0.196-1.344-0.075-1.344-0.075-2.902 0.177-8.693 6.056-14.145 14.48-6.607 10.211-13.07 23.061-21.021 33.96-14.808 18.544-37.009 19.44-42.206 19.88-17.105 0.833-24.649-7.593-23.666-13.144 1.021-3.709 4.895-10.223 23.287-10.093 14.658 0.178 34.578 6.384 37.654 6.989 0.316 0.075 0.623-7e-3 0.342-0.416-10.635-2.385-23.275-7.097-40.872-7.001-16.312 0.34-20.474 7.492-20.966 10.672-0.454 9.045 11.404 13.75 22.555 13.598 31.094-0.368 45.867-18.745 48.883-22.996 5.547-7.138 11.593-22.088 15.453-29.506 7.002-11.854 13.652-16.718 15.988-15.951 0.479 0.118 0.449-0.217 0.058-0.397z" fill="#c46258"/>
        </clipPath>
        <clipPath id="clip-p-1-c">
            <path d="m97.957 88.931c-0.605-0.075-0.831-0.05-0.404 0.403 0.428 0.455 21.562 8.092 43.295 8.856 25.885 0.454 42.027-9.427 43.748-10.899-2.387 1.081-13.7 8.527-35.65 10.143-20.295 1.899-49.614-7.607-50.989-8.503z" fill="#c46258"/>
        </clipPath>
    </defs>
    <style>
        .cm-path {
            fill: none;
            stroke: #923828;
            stroke-dasharray:1400 4000;
            stroke-dashoffset:1400;
            stroke-linecap: round;
            stroke-linejoin: round;
            stroke-width: 3.5;
            animation: letter-animation 4.0s ease-in-out forwards;
        }

        .cm-path--c-1 { animation-delay: 0.0s; stroke: #c46258; }
        .cm-path--a-1-a { animation-delay: 1.0s; }
        .cm-path--a-1-b { animation-delay: 1.5s; }
        .cm-path--l-1 { animation-delay: 2.0s; }
        .cm-path--l-2 { animation-delay: 2.7s; }
        .cm-path--i-1-a { animation-delay: 3.3s; }
        .cm-path--m-1 { animation-delay: 3.8s; }
        .cm-path--o-1 { animation-delay: 4.7s; }
        .cm-path--r-1 { animation-delay: 5.2s; }
        .cm-path--p-1-a { animation-delay: 5.8s; }
        .cm-path--h-1-a { animation-delay: 6.2s; }
        .cm-path--h-1-b { animation-delay: 6.7s; }
        .cm-path--h-1-c { animation-delay: 7.3s; }
        .cm-path--o-2 { animation-delay: 7.8s; }
        .cm-path--s-1-a { animation-delay: 8.4s; }
        .cm-path--s-1-b { animation-delay: 8.8s; }
        .cm-path--e-1 { animation-delay: 9.2s; stroke: #c46258; }
        .cm-path--p-1-b { animation-delay: 10.0s; stroke: #c46258; }
        .cm-path--p-1-c { animation-delay: 11.1s; stroke: #c46258; animation-timing-function: ease-out; }
        .cm-path--i-1-b { animation-delay: 11.8s; }

        @keyframes letter-animation {
            0% {
                stroke-dashoffset: 1400;
            }
            100% {
                stroke-dashoffset: 0;
            }
        }
    </style>

    <g clip-path="url(#clip-c-1)"><path class="cm-path        cm-path--c-1" d="m49.89 29.022c-0.59675-0.7902-1.4576-1.8563-1.4199-3.4979 0.13265-2.5817 5.6092-7.6022 7.3016-11.378 3.9721-8.8622-4.0608-11.941-9.0852-11.888-5.5542 0.059-11.405 1.8406-16.387 4.2918-7.2022 3.5439-14.147 8.4652-18.984 14.871-5.2807 6.9933-8.4568 15.423-9.3074 24.145-0.72303 7.413 0.11221 16.369 4.2139 22.586 2.7582 4.1807 6.4895 6.5499 11.413 7.4675 4.7368 0.88267 10.392-0.80436 14.727-2.9091 4.0275-1.9557 10.423-8.472 10.423-8.472l2.8983-3.6229"/></g>
    <g clip-path="url(#clip-a-1-a)"><path class="cm-path      cm-path--a-1-a" d="m45.944 41.266c-2.4175-2.1217-3.1821-0.43844-5.9102 2.0449-2.4592 2.2385-3.6274 3.9992-4.6496 7.3861-0.71626 2.3732-0.69388 4.6574 0.10906 4.8671 1.261 0.32929 15.103-16.065 14.227-14.429"/></g>
    <g clip-path="url(#clip-a-1-b)"><path class="cm-path      cm-path--a-1-b" d="m49.72 41.135c-2.4139 4.508-5.143 6.9932-7.3214 12.321-0.21512 0.5261-0.63779 1.9435 0.37499 2.1884 1.6984 0.41065 10.529-7.505 14.854-12.244"/></g>
    <g clip-path="url(#clip-l-1)"><path class="cm-path        cm-path--l-1" d="m68.524 26.967-14.915 24.024s-2.3391 4.1506-0.87335 4.4655c2.0251 0.43503 13.107-9.2537 18.378-15.272"/></g>
    <g clip-path="url(#clip-l-2)"><path class="cm-path        cm-path--l-2" d="m84.755 18.905-18.989 29.72s-3.895 6.7054-2.4483 6.9636c2.486 0.44381 9.677-4.8092 13.245-8.706"/></g>
    <g clip-path="url(#clip-i-1-a)"><path class="cm-path      cm-path--i-1-a" d="m80.535 40.747c-1.9663 4.0342-4.7672 7.6076-7.0097 11.495-0.64867 1.1245-1.7126 3.7995-0.74998 3.4865 6.615-3.4586 10.986-8.7704 16.558-14.338"/></g>
    <g clip-path="url(#clip-m-1)"><path class="cm-path        cm-path--m-1" d="m88.729 41.391c-1.2893 2.7342-5.5386 10.353-6.5854 14.379 2.782-2.6619 4.36-7.432 12.191-14.245-1.0338 1.7325-7.0414 13.396-6.6983 14.2 2.4621-3.0694 12.139-17.148 12.816-14.468-0.28143 1.7361-2.88 5.2519-4.3101 8.2094-2.6456 5.0581-2.3818 5.7631-1.8094 6.3482 0.45155 0.46159 3.1409-0.32179 5.4789-2.3253"/></g>
    <g clip-path="url(#clip-o-1)"><path class="cm-path        cm-path--o-1" d="m108.82 41.55c-1.8973 1.2913-3.2678 1.6253-4.6539 3.6689-1.9215 2.8329-4.1879 7.1938-4.0213 10.249 0.14488 2.6563 6.7172-4.0716 8.1679-7.5267 0.79241-1.8872 1.9434-3.9089 1.2168-5.2265"/></g>
    <g clip-path="url(#clip-r-1)"><path class="cm-path        cm-path--r-1" d="m109.53 42.715c2.7633 0.53194 4.1666-0.94312 5.561-1.6823-3.5116 5.7549-6.023 11.213-6.7918 14.984 4.5949-7.7644 5.7752-12.494 11.944-12.169 2.6496-0.46482 5.42-1.4305 8.7625-4.766"/></g>
    <g clip-path="url(#clip-p-1-a)"><path class="cm-path      cm-path--p-1-a" d="m121.61 48.694c0.074 2.2541-0.71548 5.3006 0.75742 6.8545 1.6323 0.859 3.6796 0.3621 5.4066-1.217 1.6037-1.2929 3.0033-2.6037 5.1001-6.2631 0.62086-2.0972 1.8257-4.6177-6e-3 -6.149-2.2653-0.7557-5.5469 1.9107-7.8862 2.8364-0.5838-0.38867 1.2864-0.62182 1.783-1.117"/></g>
    <g clip-path="url(#clip-h-1-a)"><path class="cm-path      cm-path--h-1-a" d="m134.64 41.571c5.8999-0.11806 10.914-4.8425 14.833-9.0904 4.9595-5.3753 7.8886-10.459 9.6705-14.244 0.98967-1.8524 1.7576-4.7271 1.1228-5.556"/></g>
    <g clip-path="url(#clip-h-1-b)"><path class="cm-path      cm-path--h-1-b" d="m160.26 12.681c-0.48445-0.63259-1.786-0.07342-4.4295 3.0416-3.2397 3.8175-8.0608 12.675-8.0608 12.675l-15.909 27.735"/></g>
    <g clip-path="url(#clip-h-1-c)"><path class="cm-path      cm-path--h-1-c" d="m139.27 45.27c0.85362-0.6752 4.405-3.2958 5.6406-3.8062 2.2627-1.2123 3.1744 0.0933 3.0038 1.077-0.0306 0.17648 0.0358 0.48778-1.2572 2.1362-1.1966 1.416-2.4331 3.0043-3.8448 4.3486-1.7662 2.1398-1.9911 3.452-2.0682 5.3297-0.0226 0.55009 0.0294 2.0035 0.6629 1.9357 3.573-0.38266 6.6431-5.1517 6.6431-5.1517"/></g>
    <g clip-path="url(#clip-o-2)"><path class="cm-path        cm-path--o-2" d="m158.84 44.551c0.0881-3.2408-0.92708-5.1606-5.4038-1.338-4.4112 5.2511-5.9024 10.383-5.6937 11.545 0.75295 2.7002 2.5643 1.7019 4.0268 0.64936 4.3708-3.762 5.0276-8.8848 7.0707-10.857z"/></g>
    <g clip-path="url(#clip-s-1-a)"><path class="cm-path      cm-path--s-1-a" d="m157.6 49.082c2.6873-0.29611 4.5104-2.1102 6.8036-4.109 7.4448-6.3238 4.5065-5.0567 7.6098-5.6997 1.3462-0.27893 2.8148 0.01055 4.0118 0.95734" stroke-linecap="round"/></g>
    <g clip-path="url(#clip-s-1-b)"><path class="cm-path      cm-path--s-1-b" d="m176.02 40.231c-1.197-0.94679-2.4999-1.4197-4.0118-0.95734-0.68357 0.11016-4.8477 2.9772-6.0504 8.2951-1.2422 5.718-3.9955 7.9457-6.6143 8.778-2.2188 0.34441-3.3418-1.0532-2.5091-3.1115 1.7431-2.6586 3.2167-3.2192 4.7668-4.4014" stroke-linecap="round"/></g>
    <g clip-path="url(#clip-e-1)"><path class="cm-path        cm-path--e-1" d="m173.07 47.512c2.0845 0.44191 6.796-4.4647 5.5724-6.3334-0.99288-0.56387-5.3477 0.76911-8.6235 7.1199-2.781 6.5212 0.29134 7.5266 1.4588 8.3832 5.4303 2.1822 16.249 1.2474 21.417-1.236 3.5967-1.5003 15.476-8.8214 12.053-21.351-1.1049-3.6188-3.4258-8.1225-10.835-10.114-4.2064-0.91321-7.7056-0.46595-10.984 0.22592-3.0526 1.1131-4.0214 0.9772-9.9569 4.0282-3.9799 2.2531-10.074 2.7999-16.502 0.83846"/></g>
    <g clip-path="url(#clip-p-1-b)"><path class="cm-path      cm-path--p-1-b" d="m138.09 38.239c-0.49319-0.977-1.0963-1.6348-2.9726-1.3647-2.7068 0.43391-7.0297 5.1452-8.3521 6.7645-3.2936 4.0683-4.5877 6.2187-6.2313 8.7043-5.6183 10.663-11.095 20.981-14.768 26.92-6.9231 9.9454-10.975 12.712-15.15 15.787-9.9954 6.1741-14.642 7.1221-20.245 8.4921-6.2529 1.6558-17.33 2.3839-22.817 0.87502-4.0113-0.89129-9.5413-3.0301-12.229-7.0176-2.1352-3.569-2.1755-6.3784 1.2385-10.244 4.1744-3.9463 9.6165-4.9201 15.22-5.5153 7.7022-0.60224 15.769 0.49448 23.069 1.8561 3.0754 0.57088 12.523 2.9875 21.959 5.3827" stroke-linecap="round" stroke-linejoin="round"/></g>
    <g clip-path="url(#clip-p-1-c)"><path class="cm-path      cm-path--p-1-c" d="m96.811 88.879c0.30522 0.77884 11.831 4.987 27.822 7.5945 7.937 1.2942 16.045 2.3745 24.039 1.5004 21.732-1.0684 36.139-10.471 35.781-10.352" stroke-linecap="round" stroke-linejoin="round"/></g>
    <g clip-path="url(#clip-i-1-b)"><path class="cm-path      cm-path--i-1-b" d="m86.095 31.767c-0.473-0.403-1.18 0.329-1.482 0.757s-0.453 1.363 0 1.615c0.455 0.251 1.139-0.362 1.372-0.717 0.233-0.353 0.584-1.25 0.11-1.655z"/></g>
</svg>