<?xml version="1.0" encoding="UTF-8" standalone="no"?>
<svg
   xmlns:dc="http://purl.org/dc/elements/1.1/"
   xmlns:cc="http://creativecommons.org/ns#"
   xmlns:rdf="http://www.w3.org/1999/02/22-rdf-syntax-ns#"
   xmlns:svg="http://www.w3.org/2000/svg"
   xmlns="http://www.w3.org/2000/svg"
   xmlns:sodipodi="http://sodipodi.sourceforge.net/DTD/sodipodi-0.dtd"
   xmlns:inkscape="http://www.inkscape.org/namespaces/inkscape"
   version="1.1"
   id="svg4577"
   viewBox="0 0 242.00126 29.284116"
   height="8.2646284mm"
   width="68.298134mm"
   inkscape:version="0.91 r13725"
   sodipodi:docname="separator.svg">
  <sodipodi:namedview
     pagecolor="#ffffff"
     bordercolor="#666666"
     borderopacity="1"
     objecttolerance="10"
     gridtolerance="10"
     guidetolerance="10"
     inkscape:pageopacity="0"
     inkscape:pageshadow="2"
     inkscape:window-width="1920"
     inkscape:window-height="1026"
     id="namedview7"
     showgrid="false"
     inkscape:zoom="4.0495657"
     inkscape:cx="135.20278"
     inkscape:cy="-6.5505283"
     inkscape:window-x="0"
     inkscape:window-y="0"
     inkscape:window-maximized="1"
     inkscape:current-layer="layer1" />
  <defs
     id="defs4579" />
  <metadata
     id="metadata4582">
    <rdf:RDF>
      <cc:Work
         rdf:about="">
        <dc:format>image/svg+xml</dc:format>
        <dc:type
           rdf:resource="http://purl.org/dc/dcmitype/StillImage" />
        <dc:title />
      </cc:Work>
    </rdf:RDF>
  </metadata>
  <g
     transform="translate(-324.71366,-674.863)"
     id="layer1">
    <path
       id="path392"
       style="fill:#59341f;fill-opacity:0.25098041;fill-rule:evenodd;stroke:none"
       d="m 445.72741,674.863 c -2.64,4.5425 -2.9,9.08375 0,13.62625 3.01,-4.5425 2.49,-9.08375 0,-13.62625 z m 23.8725,21.80625 c -3.0925,0 -6.16875,0 -9.26125,0 -0.0137,0.32875 0.0412,0.67 0.20625,0.9975 0.6425,1.3 2.11875,1.9575 3.7875,1.725 1.77875,-0.24625 3.48875,-0.8625 4.6925,-2.08 0.205,-0.21875 0.3975,-0.425 0.575,-0.6425 l 0,0 z m -11.095,-1.245 c -2.23,0.0412 -4.0625,0.20625 -5.4725,0.5325 -1.34,0.33 -3.58375,1.42375 -3.62375,2.8475 -0.0287,1.25625 1.40875,2.16 2.54375,2.1075 -0.21875,-2.5175 1.28625,-4.105 6.5925,-4.2425 0.11,0 0.23375,0 0.34375,0 -0.90375,1.66875 -0.12375,4.35 3.4475,4.215 1.4625,-0.0562 3.16,-0.49375 4.87,-1.4375 1.42375,-0.78 2.51625,-1.7375 3.29625,-2.7775 31,0 61.985,0 92.97,0 0.26,0.615 0.86125,1.0675 1.56,1.0675 0.93,0 1.6825,-0.76625 1.6825,-1.6825 0,-0.93125 -0.7525,-1.68375 -1.6825,-1.68375 -0.69875,0 -1.3,0.43875 -1.56,1.05375 l -92.20375,0 c 0.38375,-0.7525 0.6025,-1.54625 0.67125,-2.32625 0.2175,-2.6675 -1.0125,-4.45875 -2.8875,-5.58125 -6.06,-3.61125 -14.365,-0.7925 -18.85125,3.99375 -1.19,1.28625 -2.1875,2.82 -2.68,4.61125 -0.74,2.64 -0.3425,4.6375 0.655,5.95125 0.79375,1.0525 2.025,1.8475 3.46125,2.02375 4.58375,0.5475 5.035,-3.54375 3.27,-3.78875 -0.465,1.86 -3.02375,2.03875 -3.98125,1.9025 -1.4775,-0.1925 -2.77625,-1.24625 -3.01,-3.18875 -0.315,-2.7775 2.12125,-5.25125 4.365,-6.89375 2.19,-1.6025 4.97875,-2.8475 8.04375,-3.3925 2.53125,-0.43875 5.26625,-0.53375 7.64625,0.505 2.13375,0.9175 3.06625,2.45 3.0375,4.06375 -0.0137,0.6975 -0.20375,1.4225 -0.575,2.12 l -11.92875,0 0,0 z m -36.6625,1.245 c 0.17875,0.2175 0.37,0.42375 0.57625,0.6425 1.21625,1.2175 2.92625,1.83375 4.69,2.08 1.68375,0.2325 3.1475,-0.425 3.79,-1.725 0.165,-0.3275 0.22,-0.66875 0.205,-0.9975 -3.0775,0 -6.17,0 -9.26125,0 l 0,0 z m 11.095,-1.245 -11.915,0 c -0.37125,-0.6975 -0.575,-1.4225 -0.5875,-2.12 -0.0275,-1.61375 0.90125,-3.14625 3.035,-4.06375 2.395,-1.03875 5.13,-0.94375 7.64875,-0.505 3.06375,0.545 5.86625,1.79 8.0575,3.3925 2.22875,1.6425 4.665,4.11625 4.35,6.89375 -0.21875,1.9425 -1.51875,2.99625 -3.01,3.18875 -0.9575,0.13625 -3.515,-0.0425 -3.96625,-1.9025 -1.78,0.245 -1.32875,4.33625 3.25375,3.78875 1.4375,-0.17625 2.6825,-0.97125 3.4625,-2.02375 0.9975,-1.31375 1.395,-3.31125 0.65625,-5.95125 -0.49125,-1.79125 -1.49125,-3.325 -2.68125,-4.61125 -4.4875,-4.78625 -12.79125,-7.605 -18.85125,-3.99375 -1.87375,1.1225 -3.10625,2.91375 -2.8725,5.58125 0.0538,0.78 0.28625,1.57375 0.6575,2.32625 l -92.21875,0 c -0.24625,-0.615 -0.86125,-1.05375 -1.56,-1.05375 -0.93,0 -1.6825,0.7525 -1.6825,1.68375 0,0.91625 0.7525,1.6825 1.6825,1.6825 0.69875,0 1.31375,-0.4525 1.56,-1.0675 30.99875,0 61.98375,0 92.9825,0 0.78,1.04 1.88875,1.9975 3.29875,2.7775 1.7225,0.94375 3.405,1.38125 4.86875,1.4375 3.57125,0.135 4.35125,-2.54625 3.4475,-4.215 0.12375,0 0.2325,0 0.3425,0 5.30875,0.1375 6.8125,1.725 6.59375,4.2425 1.135,0.0525 2.5725,-0.85125 2.545,-2.1075 -0.0413,-1.42375 -2.27125,-2.5175 -3.61125,-2.8475 -1.4225,-0.32625 -3.2425,-0.49125 -5.48625,-0.5325 l 0,0 z m 13.0925,4.70625 c 0.5875,0.13625 1.02375,0.67 1.02375,1.30125 0,0.72375 -0.6,1.325 -1.32625,1.325 -0.7375,0 -1.34125,-0.60125 -1.34125,-1.325 0,-0.63125 0.44,-1.165 1.0275,-1.30125 -1.15,-11.53125 -10.93125,-20.59 -22.76375,-20.59 -0.36875,0 -0.725,0.015 -1.095,0.0275 1.99875,-0.765 4.15875,-1.17625 6.43,-1.17625 8.715,0 16.01875,6.2125 17.7425,14.43375 1.71125,-8.22125 9.015,-14.43375 17.72875,-14.43375 2.27125,0 4.43375,0.41125 6.43125,1.17625 -0.35625,-0.0125 -0.725,-0.0275 -1.095,-0.0275 -11.81875,0 -21.60125,9.05875 -22.7625,20.59 l 0,0" />
  </g>
</svg>
